<svg width="1173" height="905" viewBox="0 0 1173 905" fill="none" xmlns="http://www.w3.org/2000/svg">
<g clip-path="url(#clip0_1_371)">
<path d="M121.678 235.662C132.643 235.662 141.531 226.388 141.531 214.948C141.531 203.508 132.643 194.234 121.678 194.234C110.714 194.234 101.826 203.508 101.826 214.948C101.826 226.388 110.714 235.662 121.678 235.662Z" fill="#FFB8B8"/>
<path d="M54.5959 463.168L59.6228 472.079L94.9557 456.089L87.5362 442.939L54.5959 463.168Z" fill="#FFB8B8"/>
<path d="M56.1022 459.184L66.0018 476.731C66.8303 478.2 67.3738 479.825 67.6006 481.512C67.8274 483.2 67.7333 484.918 67.3238 486.567C66.9143 488.217 66.1974 489.766 65.2141 491.127C64.2307 492.487 63.0001 493.633 61.5925 494.497L61.2442 494.711L45.0356 465.98L56.1022 459.184Z" fill="#2F2E41"/>
<path d="M112.84 495.269L122.75 495.268L127.464 455.387L112.839 455.388L112.84 495.269Z" fill="#FFB8B8"/>
<path d="M110.313 491.893L129.829 491.892C131.462 491.892 133.08 492.228 134.589 492.88C136.098 493.532 137.469 494.488 138.624 495.693C139.779 496.898 140.695 498.328 141.32 499.903C141.945 501.477 142.267 503.164 142.267 504.868V505.29L110.313 505.291L110.313 491.893Z" fill="#2F2E41"/>
<path d="M72.9999 471.107C72.4296 471.107 71.8672 470.967 71.3582 470.699C70.8493 470.43 70.4082 470.04 70.0705 469.561L60.5133 456.018C60.2217 455.605 60.0134 455.134 59.9011 454.635C59.7887 454.135 59.7746 453.617 59.8596 453.112C59.9445 452.606 60.1268 452.124 60.3954 451.695C60.664 451.265 61.0133 450.896 61.4222 450.612L103.951 420.975L78.2896 350.576L133.165 355.301L135.014 415.798C135.187 421.307 133.921 426.762 131.352 431.579C128.783 436.395 125.007 440.393 120.427 443.142L74.8172 470.597C74.265 470.931 73.6381 471.106 72.9999 471.107Z" fill="#2F2E41"/>
<path d="M113.14 487.172C112.199 487.17 111.295 486.788 110.618 486.106C109.942 485.423 109.545 484.494 109.511 483.512L107.5 424.577L132.403 423.208L130.42 482.567C130.391 483.507 130.027 484.403 129.399 485.078C128.772 485.754 127.925 486.161 127.025 486.221L113.387 487.164C113.304 487.17 113.222 487.172 113.14 487.172Z" fill="#2F2E41"/>
<path d="M139.516 367.004C133.18 367.004 111.05 359.569 103.367 356.918C102.218 357.878 95.9042 362.804 88.534 361.904C83.9865 361.347 79.983 358.661 76.6349 353.92C69.2413 343.451 78.3733 298.553 87.3362 262.732C89.133 255.491 93.5504 249.259 99.6597 245.346C105.769 241.433 113.094 240.144 120.096 241.749C125.171 242.918 129.832 245.54 133.557 249.321C137.282 253.102 139.923 257.891 141.183 263.152C142.87 270.319 141.419 278.749 140.359 284.905C139.86 287.799 139.467 290.086 139.601 291.209C140.122 295.551 143.011 363.646 141.153 366.554C140.955 366.864 140.383 367.004 139.516 367.004Z" fill="#8D86D4"/>
<path d="M116.338 367.125C117.356 366.334 118.196 365.319 118.798 364.153C119.4 362.987 119.749 361.698 119.822 360.375C119.894 359.053 119.688 357.73 119.218 356.5C118.747 355.27 118.024 354.162 117.099 353.255L117.491 270.738L98.8639 273.974L104.336 354.068C102.978 355.791 102.274 357.973 102.355 360.201C102.437 362.43 103.299 364.549 104.778 366.159C106.258 367.768 108.252 368.755 110.382 368.933C112.513 369.111 114.632 368.468 116.338 367.125Z" fill="#FFB8B8"/>
<path d="M120.646 323.731H100.582C99.6243 323.728 98.7057 323.332 98.0251 322.628C97.3445 321.925 96.9566 320.97 96.945 319.971L96.4524 263.219C96.4354 261.257 96.7914 259.311 97.4998 257.493C98.2083 255.675 99.2552 254.022 100.58 252.629C101.905 251.236 103.481 250.13 105.218 249.377C106.954 248.624 108.817 248.237 110.698 248.239C112.579 248.242 114.441 248.633 116.175 249.391C117.91 250.149 119.484 251.258 120.806 252.654C122.127 254.051 123.17 255.707 123.874 257.527C124.579 259.346 124.93 261.293 124.908 263.256L124.283 319.98C124.269 320.977 123.88 321.93 123.2 322.631C122.52 323.333 121.603 323.728 120.646 323.731Z" fill="#8D86D4"/>
<path d="M116.623 235.575C107.534 235.593 98.9584 228.097 97.3833 218.756C96.8193 215.087 97.0736 211.331 98.1263 207.781C99.2693 203.74 101.23 200.001 103.875 196.816C106.52 193.632 109.789 191.077 113.461 189.322C117.133 187.568 121.122 186.655 125.161 186.645C129.2 186.636 133.194 187.53 136.873 189.267C139.305 190.415 141.7 192.064 142.813 194.595C143.927 197.126 143.23 200.663 140.794 201.802C139.202 202.546 137.205 202.181 135.793 203.249C133.765 204.783 134.287 208.049 135.193 210.486C136.098 212.923 137.123 215.872 135.604 217.951C134.19 219.889 131.362 219.829 129.134 219.1C126.907 218.37 124.708 217.149 122.386 217.397C118.999 217.76 116.565 221.275 116.114 224.796C115.664 228.318 116.724 231.837 117.771 235.218L116.623 235.575Z" fill="#2F2E41"/>
<path d="M209.353 506.085H0.808313C0.593935 506.085 0.388337 505.996 0.236749 505.838C0.0851607 505.68 0 505.465 0 505.242C0 505.018 0.0851607 504.803 0.236749 504.645C0.388337 504.487 0.593935 504.398 0.808313 504.398H209.353C209.567 504.398 209.773 504.487 209.925 504.645C210.076 504.803 210.161 505.018 210.161 505.242C210.161 505.465 210.076 505.68 209.925 505.838C209.773 505.996 209.567 506.085 209.353 506.085Z" fill="#CCCCCC"/>
<path d="M735.663 366.478H217.665C214.129 366.474 210.739 365.007 208.239 362.398C205.738 359.789 204.332 356.252 204.328 352.563V19.3078C204.331 16.605 205.361 14.0137 207.193 12.1025C209.025 10.1913 211.508 9.11615 214.099 9.11304H739.06C741.695 9.11616 744.222 10.2098 746.085 12.1541C747.949 14.0984 748.997 16.7345 749 19.4841V352.563C748.996 356.252 747.59 359.789 745.089 362.398C742.589 365.007 739.199 366.474 735.663 366.478Z" fill="#F2F2F2"/>
<path d="M718.915 348.909H236.154C229.077 348.909 223.32 343.284 223.32 336.37V46.1672C223.32 41.0396 227.586 36.8677 232.831 36.8677H722.081C727.412 36.8677 731.749 41.1083 731.749 46.3204V336.37C731.749 343.284 725.991 348.909 718.915 348.909Z" fill="white"/>
<path d="M748.814 21.0419H204.141V13.9574C204.146 10.2558 205.558 6.70749 208.067 4.09088C210.577 1.47428 213.979 0.00306928 217.526 0H735.429C738.976 0.00303807 742.378 1.47424 744.888 4.09085C747.397 6.70745 748.809 10.2558 748.814 13.9574V21.0419Z" fill="#3F3D56"/>
<path d="M228.467 14.1543C230.379 14.1543 231.929 12.537 231.929 10.5419C231.929 8.54679 230.379 6.92944 228.467 6.92944C226.555 6.92944 225.005 8.54679 225.005 10.5419C225.005 12.537 226.555 14.1543 228.467 14.1543Z" fill="white"/>
<path d="M241.609 14.1543C243.522 14.1543 245.072 12.537 245.072 10.5419C245.072 8.54679 243.522 6.92944 241.609 6.92944C239.697 6.92944 238.147 8.54679 238.147 10.5419C238.147 12.537 239.697 14.1543 241.609 14.1543Z" fill="white"/>
<path d="M254.752 14.1543C256.664 14.1543 258.214 12.537 258.214 10.5419C258.214 8.54679 256.664 6.92944 254.752 6.92944C252.839 6.92944 251.289 8.54679 251.289 10.5419C251.289 12.537 252.839 14.1543 254.752 14.1543Z" fill="white"/>
<path d="M466.082 100.321H371.664C370.256 100.321 368.906 99.7375 367.911 98.699C366.916 97.6605 366.357 96.252 366.357 94.7833C366.357 93.3147 366.916 91.9062 367.911 90.8677C368.906 89.8292 370.256 89.2457 371.664 89.2457H466.082C467.489 89.2457 468.839 89.8292 469.834 90.8677C470.83 91.9062 471.389 93.3147 471.389 94.7833C471.389 96.252 470.83 97.6605 469.834 98.699C468.839 99.7375 467.489 100.321 466.082 100.321Z" fill="#CCCCCC"/>
<path d="M583.405 100.321H488.988C487.58 100.321 486.23 99.7375 485.235 98.699C484.239 97.6605 483.68 96.252 483.68 94.7833C483.68 93.3147 484.239 91.9062 485.235 90.8677C486.23 89.8292 487.58 89.2457 488.988 89.2457H583.405C584.813 89.2457 586.163 89.8292 587.158 90.8677C588.153 91.9062 588.713 93.3147 588.713 94.7833C588.713 96.252 588.153 97.6605 587.158 98.699C586.163 99.7375 584.813 100.321 583.405 100.321Z" fill="#CCCCCC"/>
<path d="M583.405 121.305H419.152C417.745 121.305 416.395 120.722 415.399 119.683C414.404 118.645 413.845 117.236 413.845 115.768C413.845 114.299 414.404 112.891 415.399 111.852C416.395 110.814 417.745 110.23 419.152 110.23H583.405C584.813 110.23 586.163 110.814 587.158 111.852C588.153 112.891 588.713 114.299 588.713 115.768C588.713 117.236 588.153 118.645 587.158 119.683C586.163 120.722 584.813 121.305 583.405 121.305Z" fill="#CCCCCC"/>
<path d="M466.082 79.0449H371.664C370.258 79.0431 368.909 78.4589 367.915 77.4206C366.921 76.3823 366.363 74.9748 366.363 73.5073C366.363 72.0398 366.921 70.6324 367.915 69.5941C368.909 68.5558 370.258 67.9715 371.664 67.9697H466.082C466.779 67.9688 467.47 68.1114 468.115 68.3893C468.759 68.6672 469.345 69.0749 469.839 69.5892C470.332 70.1035 470.724 70.7143 470.991 71.3866C471.258 72.0589 471.396 72.7795 471.396 73.5073C471.396 74.2351 471.258 74.9557 470.991 75.628C470.724 76.3003 470.332 76.9111 469.839 77.4254C469.345 77.9397 468.759 78.3475 468.115 78.6253C467.47 78.9032 466.779 79.0458 466.082 79.0449Z" fill="#CCCCCC"/>
<path d="M518.039 79.3364H491.222C489.815 79.3364 488.465 78.753 487.469 77.7145C486.474 76.676 485.915 75.2675 485.915 73.7988C485.915 72.3302 486.474 70.9216 487.469 69.8831C488.465 68.8446 489.815 68.2612 491.222 68.2612H518.039C519.447 68.2612 520.797 68.8446 521.792 69.8831C522.787 70.9216 523.347 72.3302 523.347 73.7988C523.347 75.2675 522.787 76.676 521.792 77.7145C520.797 78.753 519.447 79.3364 518.039 79.3364Z" fill="#CCCCCC"/>
<path d="M398.481 121.305H371.664C370.258 121.304 368.909 120.719 367.915 119.681C366.921 118.643 366.363 117.235 366.363 115.768C366.363 114.3 366.921 112.893 367.915 111.855C368.909 110.816 370.258 110.232 371.664 110.23H398.481C399.178 110.229 399.869 110.372 400.514 110.65C401.159 110.928 401.744 111.335 402.238 111.85C402.732 112.364 403.123 112.975 403.39 113.647C403.657 114.319 403.795 115.04 403.795 115.768C403.795 116.496 403.657 117.216 403.39 117.889C403.123 118.561 402.732 119.172 402.238 119.686C401.744 120.2 401.159 120.608 400.514 120.886C399.869 121.164 399.178 121.306 398.481 121.305Z" fill="#CCCCCC"/>
<path d="M466.082 296.823H371.664C370.256 296.823 368.906 296.239 367.911 295.201C366.916 294.162 366.357 292.754 366.357 291.285C366.357 289.816 366.916 288.408 367.911 287.369C368.906 286.331 370.256 285.748 371.664 285.748H466.082C466.779 285.748 467.469 285.891 468.113 286.169C468.757 286.447 469.342 286.855 469.834 287.369C470.327 287.884 470.718 288.494 470.985 289.166C471.252 289.838 471.389 290.558 471.389 291.285C471.389 292.012 471.252 292.732 470.985 293.404C470.718 294.076 470.327 294.687 469.834 295.201C469.342 295.715 468.757 296.123 468.113 296.401C467.469 296.679 466.779 296.823 466.082 296.823Z" fill="#CCCCCC"/>
<path d="M583.405 296.823H488.988C487.58 296.823 486.23 296.239 485.235 295.201C484.239 294.162 483.68 292.754 483.68 291.285C483.68 289.816 484.239 288.408 485.235 287.369C486.23 286.331 487.58 285.748 488.988 285.748H583.405C584.102 285.748 584.792 285.891 585.436 286.169C586.08 286.447 586.665 286.855 587.158 287.369C587.651 287.884 588.042 288.494 588.309 289.166C588.575 289.838 588.713 290.558 588.713 291.285C588.713 292.012 588.575 292.732 588.309 293.404C588.042 294.076 587.651 294.687 587.158 295.201C586.665 295.715 586.08 296.123 585.436 296.401C584.792 296.679 584.102 296.823 583.405 296.823Z" fill="#CCCCCC"/>
<path d="M583.405 317.807H419.152C417.745 317.807 416.395 317.224 415.399 316.185C414.404 315.147 413.845 313.738 413.845 312.27C413.845 310.801 414.404 309.393 415.399 308.354C416.395 307.316 417.745 306.732 419.152 306.732H583.405C584.103 306.731 584.793 306.874 585.438 307.152C586.083 307.43 586.669 307.837 587.162 308.352C587.656 308.866 588.047 309.477 588.314 310.149C588.582 310.821 588.719 311.542 588.719 312.27C588.719 312.998 588.582 313.718 588.314 314.39C588.047 315.063 587.656 315.674 587.162 316.188C586.669 316.702 586.083 317.11 585.438 317.388C584.793 317.666 584.103 317.808 583.405 317.807Z" fill="#CCCCCC"/>
<path d="M466.082 275.547H371.664C370.256 275.547 368.906 274.963 367.911 273.925C366.916 272.886 366.357 271.478 366.357 270.009C366.357 268.54 366.916 267.132 367.911 266.093C368.906 265.055 370.256 264.472 371.664 264.472H466.082C467.489 264.472 468.839 265.055 469.834 266.093C470.83 267.132 471.389 268.54 471.389 270.009C471.389 271.478 470.83 272.886 469.834 273.925C468.839 274.963 467.489 275.547 466.082 275.547Z" fill="#CCCCCC"/>
<path d="M518.039 275.838H491.222C489.815 275.838 488.465 275.255 487.469 274.216C486.474 273.178 485.915 271.769 485.915 270.301C485.915 268.832 486.474 267.423 487.469 266.385C488.465 265.346 489.815 264.763 491.222 264.763H518.039C519.447 264.763 520.797 265.346 521.792 266.385C522.787 267.423 523.347 268.832 523.347 270.301C523.347 271.769 522.787 273.178 521.792 274.216C520.797 275.255 519.447 275.838 518.039 275.838Z" fill="#CCCCCC"/>
<path d="M398.481 317.807H371.664C370.256 317.807 368.906 317.224 367.911 316.185C366.916 315.147 366.357 313.738 366.357 312.27C366.357 310.801 366.916 309.393 367.911 308.354C368.906 307.316 370.256 306.732 371.664 306.732H398.481C399.178 306.731 399.869 306.874 400.514 307.152C401.159 307.43 401.744 307.837 402.238 308.352C402.732 308.866 403.123 309.477 403.39 310.149C403.657 310.821 403.795 311.542 403.795 312.27C403.795 312.998 403.657 313.718 403.39 314.39C403.123 315.063 402.732 315.674 402.238 316.188C401.744 316.702 401.159 317.11 400.514 317.388C399.869 317.666 399.178 317.808 398.481 317.807Z" fill="#CCCCCC"/>
<path d="M441.423 237.372C439.419 237.377 437.495 236.556 436.069 235.087L400.577 198.519C399.88 197.802 399.327 196.946 398.949 196.004C398.572 195.061 398.377 194.049 398.377 193.028C398.377 192.006 398.572 190.995 398.949 190.052C399.327 189.109 399.88 188.254 400.577 187.536L435.925 151.116C437.398 149.606 439.382 148.763 441.447 148.77C443.511 148.777 445.49 149.633 446.954 151.153C448.418 152.684 449.241 154.76 449.241 156.924C449.241 159.088 448.419 161.163 446.954 162.695L420.687 190.102C419.868 190.957 419.409 192.117 419.409 193.326C419.409 194.535 419.868 195.694 420.687 196.55L446.811 223.808C447.878 224.919 448.605 226.335 448.899 227.877C449.194 229.419 449.043 231.018 448.466 232.471C447.889 233.923 446.912 235.165 445.658 236.037C444.404 236.91 442.93 237.375 441.423 237.372Z" fill="#8D86D4"/>
<path d="M497.977 237.372C496.469 237.374 494.995 236.91 493.742 236.037C492.488 235.165 491.51 233.923 490.933 232.471C490.356 231.018 490.205 229.419 490.5 227.877C490.795 226.335 491.521 224.918 492.588 223.808L518.713 196.55C519.531 195.694 519.99 194.535 519.99 193.326C519.99 192.117 519.531 190.957 518.713 190.101L492.446 162.695C491.719 161.937 491.143 161.038 490.75 160.047C490.357 159.057 490.154 157.996 490.154 156.924C490.154 155.852 490.357 154.791 490.75 153.8C491.143 152.81 491.719 151.91 492.446 151.152C493.909 149.633 495.888 148.777 497.953 148.77C500.017 148.763 502.001 149.606 503.474 151.116L538.822 187.536C539.519 188.254 540.072 189.109 540.45 190.052C540.828 190.994 541.022 192.006 541.022 193.028C541.022 194.049 540.828 195.061 540.45 196.004C540.072 196.946 539.519 197.801 538.822 198.519L503.331 235.087C501.905 236.555 499.98 237.377 497.977 237.372Z" fill="#8D86D4"/>
</g>
<g clip-path="url(#clip1_1_371)">
<path opacity="0.1" d="M969.778 807.259C1079.94 807.259 1169.23 789.926 1169.23 768.543C1169.23 747.161 1079.94 729.827 969.778 729.827C859.622 729.827 770.322 747.161 770.322 768.543C770.322 789.926 859.622 807.259 969.778 807.259Z" fill="#8D86D4"/>
<g opacity="0.5">
<path d="M798.935 314.601C796.245 315.364 792.952 317.353 791.329 322.791C788.148 333.45 795.537 340.697 793.103 351.809C792.427 354.756 791.141 357.53 789.328 359.952C786.355 363.976 783.128 365.88 779.995 368.697C776.021 372.298 773.173 376.968 771.794 382.146C770.284 387.862 770.157 393.855 771.426 399.629C772.54 404.454 774.437 407.97 776.098 411.881C778.163 416.869 779.776 422.033 780.92 427.309C781.547 429.878 781.902 432.506 781.977 435.15C781.93 438.662 781.614 442.166 781.033 445.63L776.513 477.127C775.826 481.245 775.413 485.404 775.277 489.577C775.336 493.759 775.819 497.923 776.72 502.008C778.306 510.339 780.014 518.972 783.647 523.383C787.28 527.793 793.471 526.21 797.274 517.285C800.888 508.746 800.973 497.352 804.163 488.229C809.192 473.857 819.186 471.925 824.735 458.212C830.057 445.017 828.425 428.92 831.123 413.916C833.011 403.163 837.172 393.362 839.617 382.74C843.127 367.444 842.778 351.564 839.975 339.802C837.844 330.138 833.232 321.193 826.594 313.847C824.244 311.255 821.724 308.946 818.771 308.71C815.628 308.465 812.882 312.414 809.777 313.602C806.191 315.006 802.587 313.564 798.935 314.601Z" fill="#8D86D4"/>
<path d="M815.949 309.511C815.949 309.511 810.627 445.545 788.243 525.758" stroke="#535461" stroke-width="2" stroke-miterlimit="10"/>
<path d="M791.196 323.431C791.196 323.431 815.119 345.183 810.58 386.576" stroke="#535461" stroke-width="2" stroke-miterlimit="10"/>
<path d="M771.124 385.332C771.124 385.332 810.391 393.22 807.475 416.678" stroke="#535461" stroke-width="2" stroke-miterlimit="10"/>
<path d="M840.041 339.519C840.041 339.519 824.15 353.411 809.995 392.758" stroke="#535461" stroke-width="2" stroke-miterlimit="10"/>
<path d="M824.518 458.438C824.518 458.438 813.675 466.92 804.974 437.223" stroke="#535461" stroke-width="2" stroke-miterlimit="10"/>
<path d="M777.73 475.789C777.73 475.789 799.841 472.905 801.879 459.079" stroke="#535461" stroke-width="2" stroke-miterlimit="10"/>
</g>
<path d="M852.385 223.362C846.911 224.172 840.324 226.707 837.616 234.52C832.303 249.845 848.45 261.446 844.731 277.458C843.622 281.865 841.286 285.868 837.994 289.004C832.331 294.573 825.858 297.005 819.724 300.784C813.59 304.563 807.22 310.51 804.342 319.633C801.577 328.408 802.775 338.096 805.654 345.334C808.532 352.572 812.882 357.972 816.77 363.929C821.495 371.26 825.445 379.061 828.557 387.207C830.126 390.92 831.18 394.83 831.69 398.828C832.19 403.729 831.558 408.997 830.925 414.152L825.31 460.087C824.565 466.194 823.81 472.396 824.235 478.277C824.716 485.053 826.726 490.972 828.708 496.749C832.973 509.208 837.541 522.195 845.59 529.056C853.64 535.917 866.266 534.447 873.07 521.686C879.544 509.538 878.355 492.772 883.875 479.719C892.576 459.145 913.035 457.477 922.878 437.949C932.314 419.213 927.039 395.246 930.833 373.476C933.551 357.878 940.911 343.93 944.686 328.577C950.131 306.458 947.517 283.038 940.326 265.433C933.135 247.828 921.764 235.274 909.562 225.633C904.391 221.533 898.908 217.829 892.765 217.151C886.234 216.425 881.016 221.91 874.74 223.296C867.436 224.813 859.811 222.259 852.385 223.362Z" fill="#8D86D4"/>
<path d="M886.999 217.876C886.999 217.876 892.151 417.573 855.329 533.052" stroke="#535461" stroke-width="2" stroke-miterlimit="10"/>
<path d="M837.408 235.482C837.408 235.482 889.5 270.352 885.036 330.82" stroke="#535461" stroke-width="2" stroke-miterlimit="10"/>
<path d="M803.219 324.233C803.219 324.233 885.432 340.499 882.186 374.692" stroke="#535461" stroke-width="2" stroke-miterlimit="10"/>
<path d="M940.421 264.924C940.421 264.924 909.175 283.5 884.564 339.764" stroke="#535461" stroke-width="2" stroke-miterlimit="10"/>
<path d="M922.387 438.213C922.387 438.213 900.965 449.522 879.421 404.652" stroke="#535461" stroke-width="2" stroke-miterlimit="10"/>
<path d="M827.613 458.202C827.613 458.202 873.032 456.572 875.618 436.451" stroke="#535461" stroke-width="2" stroke-miterlimit="10"/>
<path d="M264.463 762.295C264.463 762.295 272.371 772.662 260.81 788.212C249.25 803.763 239.7 816.976 243.579 826.702C243.579 826.702 261.018 797.741 275.211 797.335C289.404 796.93 280.08 779.711 264.463 762.295Z" fill="#8D86D4"/>
<path opacity="0.1" d="M264.462 762.295C265.168 763.291 265.727 764.383 266.123 765.537C279.977 781.785 287.347 796.949 274.041 797.335C261.641 797.694 246.768 819.832 243.201 825.43C243.319 825.862 243.461 826.286 243.626 826.702C243.626 826.702 261.065 797.741 275.258 797.335C289.451 796.93 280.08 779.711 264.462 762.295Z" fill="black"/>
<path d="M279.165 775.461C279.165 779.099 278.759 782.058 278.221 782.058C277.683 782.058 277.278 779.108 277.278 775.461C277.278 771.814 277.787 773.576 278.287 773.576C278.788 773.576 279.165 771.823 279.165 775.461Z" fill="#FFD037"/>
<path d="M284.214 779.796C281.015 781.54 278.231 782.624 277.995 782.143C277.759 781.662 280.146 779.928 283.346 778.194C286.545 776.46 285.28 777.723 285.525 778.194C285.771 778.665 287.403 778.053 284.214 779.796Z" fill="#FFD037"/>
<path d="M222.714 762.295C222.714 762.295 214.806 772.662 226.366 788.212C237.926 803.763 247.457 816.967 243.598 826.693C243.598 826.693 226.159 797.731 211.966 797.326C197.773 796.921 207.077 779.711 222.714 762.295Z" fill="#8D86D4"/>
<path opacity="0.1" d="M222.714 762.295C222.025 763.294 221.482 764.385 221.1 765.537C207.247 781.785 199.877 796.949 213.183 797.335C225.583 797.694 240.455 819.832 244.022 825.43C243.905 825.862 243.763 826.286 243.598 826.702C243.598 826.702 226.158 797.741 211.966 797.335C197.773 796.93 207.077 779.711 222.714 762.295Z" fill="black"/>
<path d="M207.993 775.461C207.993 779.099 208.398 782.058 208.936 782.058C209.474 782.058 209.88 779.108 209.88 775.461C209.88 771.814 209.37 773.576 208.87 773.576C208.37 773.576 207.993 771.823 207.993 775.461Z" fill="#FFD037"/>
<path d="M202.944 779.796C206.143 781.54 208.927 782.624 209.163 782.143C209.399 781.662 207.011 779.928 203.812 778.194C200.613 776.46 201.878 777.723 201.632 778.194C201.387 778.665 199.754 778.053 202.944 779.796Z" fill="#FFD037"/>
<path d="M210.512 825.345C210.512 825.345 232.623 824.667 239.285 819.926C245.947 815.185 273.258 809.559 274.947 817.099C276.636 824.638 308.174 854.901 283.213 855.098C258.253 855.296 225.215 851.215 218.562 847.172C211.909 843.129 210.512 825.345 210.512 825.345Z" fill="#A8A8A8"/>
<path opacity="0.2" d="M283.657 852.478C258.697 852.676 225.658 848.595 219.005 844.552C213.938 841.47 211.918 830.416 211.248 825.317H210.512C210.512 825.317 211.909 843.129 218.562 847.172C225.215 851.215 258.253 855.306 283.213 855.098C290.423 855.042 292.905 852.478 292.773 848.69C291.773 851.008 289.026 852.441 283.657 852.478Z" fill="black"/>
<path d="M1128.03 758.007C1129.76 756.599 1131.02 754.699 1131.65 752.559C1132.12 750.392 1131.19 747.8 1129.12 747.008C1126.8 746.122 1124.32 747.725 1122.44 749.355C1120.56 750.985 1118.4 752.833 1115.94 752.484C1117.2 751.338 1118.15 749.884 1118.68 748.264C1119.22 746.643 1119.33 744.912 1118.99 743.238C1118.89 742.545 1118.59 741.893 1118.14 741.354C1116.85 739.978 1114.52 740.571 1112.97 741.655C1108.07 745.104 1106.7 751.758 1106.67 757.752C1106.18 755.594 1106.59 753.342 1106.57 751.155C1106.56 748.969 1105.95 746.443 1104.08 745.293C1102.92 744.671 1101.62 744.363 1100.31 744.398C1098.1 744.313 1095.65 744.539 1094.14 746.151C1092.25 748.149 1092.75 751.513 1094.38 753.69C1096.01 755.867 1098.49 757.272 1100.77 758.798C1102.6 759.885 1104.16 761.37 1105.34 763.143C1105.48 763.389 1105.59 763.648 1105.68 763.916H1119.5C1122.6 762.34 1125.47 760.352 1128.03 758.007Z" fill="#8D86D4"/>
<path opacity="0.1" d="M722.242 669.661C945.135 669.661 1125.83 652.327 1125.83 630.945C1125.83 609.563 945.135 592.229 722.242 592.229C499.349 592.229 318.658 609.563 318.658 630.945C318.658 652.327 499.349 669.661 722.242 669.661Z" fill="#8D86D4"/>
<path opacity="0.1" d="M412.063 893.023C522.22 893.023 611.52 875.689 611.52 854.307C611.52 832.924 522.22 815.591 412.063 815.591C301.907 815.591 212.607 832.924 212.607 854.307C212.607 875.689 301.907 893.023 412.063 893.023Z" fill="#8D86D4"/>
<path d="M615.955 618.872L612.794 623.462C612.794 623.462 616.238 628.052 616.568 628.626C616.899 629.201 626.619 628.344 626.619 628.344L627.477 624.904L626.043 620.889L615.955 618.872Z" fill="#E6E6F0"/>
<path d="M509.668 616.29L503.346 617.43L507.366 625.187L511.678 627.477L515.698 630.342L516.85 627.194L513.972 621.162L509.668 616.29Z" fill="#FDC2CC"/>
<path d="M613.086 541.694C613.086 541.694 646.7 549.724 653.013 558.659C653.013 558.659 658.76 563.541 653.013 572.428C647.266 581.315 639.226 601.408 639.226 601.408C639.226 601.408 633.479 620.917 631.186 622.35C628.893 623.782 615.672 624.932 614.521 619.522C614.521 619.522 621.985 607.761 621.985 602.304C621.985 596.847 634.338 571.033 634.338 571.033C634.338 571.033 606.188 567.876 597.28 569.883C588.371 571.891 601.309 538.537 613.086 541.694Z" fill="#565171"/>
<path opacity="0.1" d="M613.086 541.694C613.086 541.694 646.7 549.724 653.013 558.659C653.013 558.659 658.76 563.541 653.013 572.428C647.266 581.315 639.226 601.408 639.226 601.408C639.226 601.408 633.479 620.917 631.186 622.35C628.893 623.782 615.672 624.932 614.521 619.522C614.521 619.522 621.985 607.761 621.985 602.304C621.985 596.847 634.338 571.033 634.338 571.033C634.338 571.033 606.188 567.876 597.28 569.883C588.371 571.891 601.309 538.537 613.086 541.694Z" fill="black"/>
<path d="M606.188 549.442C606.122 551.11 605.943 552.985 605.688 555.002C603.848 569.61 597.855 591.334 597.855 591.334C597.855 591.334 591.825 604.245 590.098 612.567C588.371 620.889 576.594 622.934 576.594 622.934C576.594 622.934 544.415 626.704 537.809 625.234C531.203 623.763 520.823 629.541 515.689 628.674C510.555 627.807 507.356 615.762 507.356 615.762C516.266 615.814 525.084 613.957 533.213 610.315C546.425 604.292 565.393 607.157 565.393 607.157C566.807 606.747 568.123 606.052 569.259 605.116C570.395 604.179 571.327 603.02 571.998 601.71C574.008 597.403 574.008 571.297 573.433 569.572C569.658 558.263 569.97 551.006 571.055 546.774C571.418 544.926 572.235 543.197 573.433 541.742L606.188 549.442Z" fill="#565171"/>
<path opacity="0.1" d="M606.188 549.441C606.122 551.11 605.943 552.985 605.688 555.002C602.8 555.228 594.703 555.445 588.702 551.741C583.039 548.273 574.801 547.095 571.092 546.727C571.456 544.879 572.273 543.15 573.471 541.694L606.188 549.441Z" fill="black"/>
<path d="M610.161 545.851C608.821 549.62 606.764 554.041 606.764 554.041C606.764 554.041 596.138 555.473 588.664 550.883C581.19 546.294 569.13 545.719 569.13 545.719C571.083 544.522 572.404 540.884 573.225 537.698C573.684 535.897 574.043 534.073 574.301 532.232C574.301 532.232 609.632 539.404 611.105 540.554C611.652 541.006 611.067 543.287 610.161 545.851Z" fill="#E6E6F0"/>
<path d="M673.123 424.924L630.271 450.757L626.015 453.32V440.701L628.968 439.287L665.083 422.05C665.083 422.05 666.81 390.779 671.406 395.661C676.001 400.543 673.123 424.924 673.123 424.924Z" fill="#FDC2CC"/>
<path opacity="0.1" d="M630.271 450.757L626.015 453.321V440.701L628.968 439.287C629.164 443.134 629.599 446.964 630.271 450.757Z" fill="black"/>
<path d="M597.289 455.375L628.025 437.591C628.025 437.591 628.6 454.81 632.045 457.382C632.045 457.382 619.409 461.152 614.521 469.144L597.289 455.375Z" fill="#B45181"/>
<path opacity="0.1" d="M597.289 455.375L628.025 437.591C628.025 437.591 628.6 454.81 632.045 457.382C632.045 457.382 619.409 461.152 614.521 469.144L597.289 455.375Z" fill="black"/>
<path d="M672.85 470.539C672.85 470.539 658.232 476.901 648.55 479.238C646.371 479.894 644.092 480.156 641.821 480.011C635.216 478.861 643.548 470.586 643.548 470.586L647.021 470.049L665.668 467.146C665.668 467.146 667.678 438.458 671.123 440.758C674.567 443.057 672.85 470.539 672.85 470.539Z" fill="#FDC2CC"/>
<path d="M611.076 444.716C611.076 444.716 598.723 453.895 603.319 465.374C607.915 476.854 579.472 458.485 579.472 458.485C579.472 458.485 588.664 444.716 590.674 434.387C592.684 424.057 611.076 444.716 611.076 444.716Z" fill="#FDC2CC"/>
<path opacity="0.1" d="M610.161 545.851C604.818 543.841 599.234 542.542 593.552 541.987C585.248 541.044 577.642 539.451 573.235 537.698C573.693 535.897 574.052 534.073 574.31 532.232C574.31 532.232 609.642 539.404 611.114 540.554C611.652 541.006 611.067 543.287 610.161 545.851Z" fill="black"/>
<path opacity="0.1" d="M648.54 479.238C646.362 479.894 644.083 480.156 641.812 480.011C635.206 478.861 643.539 470.586 643.539 470.586L647.012 470.049C648.465 472.283 649.946 475.77 648.54 479.238Z" fill="black"/>
<path d="M590.966 449.881C590.966 449.881 579.765 449.598 575.745 454.188C571.725 458.777 572.584 471.152 572.584 471.152C572.584 471.152 571.744 495.929 578.038 509.792C578.246 510.24 578.269 510.751 578.104 511.216C578.038 511.385 578.038 511.282 578.038 511.282C578.038 511.282 574.018 529.358 569.998 532.515C565.978 535.672 578.614 539.404 593.59 541.12C608.566 542.835 614.558 547.142 614.558 547.142C614.558 547.142 617.144 544.315 617.389 537.962C617.635 531.61 613.398 485.458 613.398 485.458C613.398 485.458 629.195 489.473 638.679 484.601C638.679 484.601 642.991 486.9 647.012 480.586C651.032 474.271 644.181 467.391 644.181 467.391C644.181 467.391 637.858 473.706 620.334 465.384C602.81 457.062 596.411 449.598 590.966 449.881Z" fill="#B45181"/>
<path d="M505.073 616.865H501.628V621.747L505.073 629.494C505.073 629.494 509.668 630.351 509.961 630.351C510.253 630.351 513.981 629.494 513.981 629.494L515.132 627.486C515.132 627.486 502.487 622.595 505.073 616.865Z" fill="#E6E6F0"/>
<path d="M613.086 621.454L607.915 632.934L629.752 643.301L646.993 643.876C646.993 643.876 648.427 639.861 642.68 637.853L638.084 636.996C638.084 636.996 632.054 626.091 631.479 620.974C631.479 620.974 625.732 622.124 624.873 626.421C624.863 626.327 616.823 630.342 613.086 621.454Z" fill="#B45181"/>
<path d="M502.487 615.715L500.732 617.147L493.012 623.462L510.82 647.023C510.82 647.023 520.87 651.33 525.475 647.023C525.475 647.023 528.306 644.196 522.031 641.859C522.031 641.859 517.142 642.716 517.142 637.844C517.142 632.971 518.294 627.807 519.973 626.657C519.973 626.657 515.661 625.224 514.519 626.374C513.64 627.341 512.868 628.399 512.216 629.531C512.216 629.531 501.911 625.469 502.487 615.715Z" fill="#B45181"/>
<path opacity="0.1" d="M590.108 434.962C589.816 436.417 589.431 437.853 588.956 439.259C590.449 442.844 593.281 445.707 596.853 447.24C600.424 448.772 604.454 448.854 608.085 447.468C608.842 446.688 609.653 445.96 610.51 445.291C610.51 445.291 592.118 424.632 590.108 434.962Z" fill="black"/>
<path opacity="0.1" d="M588.522 473.282C588.522 473.282 597.431 485.044 610.359 485.336Z" fill="black"/>
<g opacity="0.1">
<path d="M641.765 484.798C641.583 484.748 641.406 484.682 641.236 484.601C640.959 484.745 640.676 484.88 640.387 485.006C640.853 484.997 641.316 484.927 641.765 484.798Z" fill="black"/>
<path d="M644.822 468.569C644.51 468.168 644.176 467.785 643.822 467.42C643.822 467.42 641.935 469.304 637.273 469.663C639.841 469.917 642.432 469.542 644.822 468.569Z" fill="black"/>
<path d="M615.955 485.458L616.012 486.071C619.801 486.772 623.652 487.088 627.506 487.013C623.614 486.872 619.745 486.351 615.955 485.458Z" fill="black"/>
<path d="M596.138 541.138C581.199 539.414 568.563 535.691 572.546 532.534C576.528 529.377 580.586 511.3 580.586 511.3C580.586 511.3 580.586 511.404 580.652 511.234C580.817 510.77 580.794 510.259 580.586 509.811C574.292 495.91 575.131 471.171 575.131 471.171C575.131 471.171 574.273 458.834 578.293 454.206C581.284 450.785 588.258 450.078 591.627 449.937C591.313 449.913 590.997 449.913 590.683 449.937C590.683 449.937 579.482 449.654 575.462 454.244C571.442 458.834 572.3 471.208 572.3 471.208C572.3 471.208 571.461 495.985 577.755 509.849C577.962 510.296 577.986 510.807 577.821 511.272C577.755 511.442 577.755 511.338 577.755 511.338C577.755 511.338 573.763 529.358 569.705 532.515C565.647 535.672 578.321 539.404 593.297 541.12C608.274 542.835 614.266 547.142 614.266 547.142C614.566 546.782 614.832 546.393 615.059 545.983C612.143 544.578 606.141 542.269 596.138 541.138Z" fill="black"/>
</g>
<path d="M603.319 447.873C611.569 447.873 618.258 441.194 618.258 432.954C618.258 424.715 611.569 418.035 603.319 418.035C595.069 418.035 588.381 424.715 588.381 432.954C588.381 441.194 595.069 447.873 603.319 447.873Z" fill="#FDC2CC"/>
<path opacity="0.1" d="M624.58 426.281C623.344 429.373 619.654 430.541 616.417 431.342C611.793 432.473 606.811 433.586 602.385 431.833C601.812 431.511 601.15 431.382 600.498 431.465C599.972 431.676 599.533 432.058 599.252 432.549C594.373 439.485 595.166 448.731 593.901 457.119C593.505 459.729 592.835 462.425 591.07 464.375C587.635 468.145 581.152 468.004 577.991 472.009C575.905 474.648 575.886 478.314 575.905 481.679C575.905 485.267 575.874 488.857 575.811 492.451C575.754 494.807 575.641 497.248 574.575 499.341C572.763 502.884 568.724 504.571 564.996 505.938C562.675 506.805 560.278 507.681 557.787 507.446C555.295 507.21 552.804 505.561 552.483 503.073C552.04 499.699 555.522 497.343 557.919 494.911C561.75 491.038 563.326 485.402 563.468 479.954C563.602 477.754 563.281 475.55 562.524 473.48C561.646 471.34 560.08 469.54 559.136 467.429C556.23 460.926 559.816 453.405 564.109 447.713C568.403 442.02 573.678 436.469 574.594 429.41C574.673 427.883 574.891 426.366 575.245 424.877C575.905 422.823 577.472 417.149 579.199 415.849C581.963 413.769 585.209 412.42 588.636 411.928C591.287 411.541 593.996 411.683 596.629 411.174C599.705 410.58 602.564 409.119 605.641 408.573C612.294 407.395 619.513 415.113 622.429 421.202C623.231 423.068 625.335 424.387 624.58 426.281Z" fill="black"/>
<path d="M624.58 425.707C623.344 428.798 619.654 429.967 616.417 430.768C611.793 431.899 606.811 433.011 602.385 431.258C601.812 430.936 601.15 430.807 600.498 430.89C599.972 431.101 599.533 431.483 599.252 431.974C594.373 438.91 595.166 448.156 593.901 456.544C593.505 459.154 592.835 461.85 591.07 463.801C587.635 467.57 581.152 467.429 577.991 471.435C575.905 474.073 575.886 477.74 575.905 481.104C575.905 484.692 575.874 488.283 575.811 491.876C575.754 494.233 575.641 496.673 574.575 498.766C572.763 502.309 568.724 503.996 564.996 505.363C562.675 506.23 560.278 507.106 557.787 506.871C555.295 506.635 552.804 504.986 552.483 502.498C552.04 499.124 555.522 496.768 557.919 494.336C561.75 490.463 563.326 484.827 563.468 479.379C563.602 477.179 563.281 474.975 562.524 472.905C561.646 470.765 560.08 468.965 559.136 466.854C556.23 460.351 559.816 452.831 564.109 447.138C568.403 441.446 573.678 435.895 574.594 428.836C574.673 427.308 574.891 425.791 575.245 424.302C575.905 422.248 577.472 416.574 579.199 415.274C581.963 413.194 585.209 411.845 588.636 411.353C591.287 410.967 593.996 411.108 596.629 410.599C599.705 410.005 602.564 408.545 605.641 407.998C612.294 406.82 619.513 414.539 622.429 420.627C623.231 422.493 625.335 423.812 624.58 425.707Z" fill="#F569BC"/>
<path d="M672.85 397.028H921.198V645.035H672.85V397.028Z" fill="#F7DF1E"/>
<path d="M738.162 604.283L757.167 592.794C760.838 599.288 764.169 604.782 772.172 604.782C779.844 604.782 784.676 601.785 784.676 590.137V510.886H808.013V590.457C808.013 614.593 793.858 625.582 773.172 625.582C754.506 625.582 743.673 615.922 738.171 604.274M820.686 601.776L839.683 590.787C844.684 598.949 851.186 604.924 862.69 604.924C872.362 604.924 878.525 600.098 878.525 593.435C878.525 585.443 872.192 582.616 861.538 577.951L855.706 575.453C838.871 568.3 827.698 559.309 827.698 540.328C827.698 522.845 841.032 509.529 861.869 509.529C876.703 509.529 887.348 514.693 895.039 528.17L876.873 539.828C872.872 532.666 868.54 529.838 861.869 529.838C855.036 529.838 850.695 534.164 850.695 539.828C850.695 546.821 855.027 549.649 865.03 553.965L870.862 556.463C890.679 564.945 901.871 573.606 901.871 593.087C901.871 614.066 885.366 625.554 863.18 625.554C841.476 625.554 827.509 615.187 820.715 601.748" fill="black"/>
<path d="M1030.14 782.671C1030.14 782.671 1020.44 783.349 1014.46 772.982C1013.29 770.895 1011.91 768.934 1010.34 767.13C1008.41 763.967 1007.4 760.326 1007.44 756.621C1007.77 748.94 999.75 706.869 999.75 706.869C999.75 706.869 1000.75 690.847 992.729 680.829C987.444 674.232 979.848 655.383 975.271 643.206C975.578 643.48 975.947 643.674 976.346 643.772L976.158 642.726H976.346L973.978 629.729C970.529 625.77 967.623 621.371 965.334 616.648L965.872 616.535L972.968 615.046C972.968 615.046 984.5 598.675 985.236 590.627H986.18H987.51C998.185 590.568 1008.85 591.125 1019.46 592.295C1019.46 592.248 1019.39 592.04 1019.29 591.71C1018.84 590.091 1018.5 588.445 1018.26 586.781H1018.92L1025.52 586.348C1025.52 586.348 1048.25 560.977 1039.89 556.302C1031.53 551.628 1022.84 577.338 1022.84 577.338L1020.01 577.847L1019.25 577.988C1019.32 577.875 1019.4 577.772 1019.48 577.668C1019.57 577.564 982.377 576.009 976.648 566.98C976.648 566.98 960.266 553.956 959.596 545.304C959.476 543.509 958.862 541.782 957.824 540.312C956.785 538.843 955.361 537.687 953.708 536.973C951.684 536.008 949.442 535.589 947.206 535.757L939.534 536.285L940.071 537.227H939.854C939.373 536.126 938.969 534.992 938.646 533.834H938.807C938.75 533.599 938.703 533.363 938.656 533.128C941.007 532.574 943.223 531.554 945.173 530.13C947.122 528.705 948.766 526.904 950.006 524.833C951.245 522.763 952.057 520.465 952.391 518.075C952.725 515.686 952.576 513.254 951.952 510.923C952.703 511.019 953.464 510.997 954.208 510.857C957.039 510.282 959.03 507.417 959.106 504.552C959.106 504.364 959.106 504.175 959.106 503.996C959.106 503.996 959.106 503.921 959.106 503.883C959.077 502.443 958.728 501.028 958.083 499.74C957.438 498.452 956.514 497.324 955.378 496.438C953.849 495.165 952.018 494.261 950.66 492.847C949.008 491.16 948.102 488.898 946.819 486.91C944.669 483.62 941.48 481.142 937.759 479.869C934.994 478.927 931.597 478.833 929.474 480.812C928.379 481.839 927.747 483.328 926.52 484.195C924.756 485.458 922.359 485.081 920.198 485.336C918.241 485.636 916.388 486.413 914.803 487.599C913.218 488.784 911.95 490.34 911.11 492.131C910.05 494.373 909.539 496.834 909.619 499.312C909.596 501.012 909.799 502.708 910.223 504.354C910.638 505.994 911.251 507.578 911.704 509.217C912.648 512.61 912.865 516.182 913.95 519.528C914.68 522.011 916.135 524.22 918.131 525.871L917.81 527.247C917.602 527.247 912.393 528.406 908.798 536.256C905.967 542.448 896.332 548.838 892.095 551.421C891.305 551.903 890.619 552.539 890.078 553.29C889.536 554.041 889.151 554.892 888.943 555.794C888.536 557.615 888.355 559.479 888.405 561.345C888.329 565.369 889.169 570.939 892.406 577.998C899.757 594.019 905.108 601.031 905.108 601.031C905.108 601.031 905.514 605.942 905.542 611.116C905.542 614.97 905.259 618.806 904.438 620.729C903.74 622.35 903.494 626.487 903.551 631.218C903.551 640.285 904.438 652.112 904.438 652.112C904.438 652.112 906.995 652.602 910.949 653.177L913.412 696.455C913.722 701.696 912.037 706.86 908.694 710.912C906.966 713.043 904.971 714.944 902.758 716.567C895.737 721.571 880.695 774.33 880.695 774.33C880.695 774.33 881.431 774.33 882.639 774.471L878.015 787.355C878.015 787.355 896.492 801.492 907.732 797.627C908.949 797.231 910.227 797.053 911.506 797.1C913.724 797.1 918.471 795.347 915.828 793.038C910.726 788.345 905.914 783.347 901.418 778.072C901.78 778.248 902.127 778.453 902.456 778.684V778.58L902.617 778.684C902.617 778.684 902.617 778.166 902.739 777.318L902.579 777.261C902.919 773.793 903.995 765.009 906.127 763.991C908.798 762.653 928.53 723.588 928.53 723.588L948.253 672.837C948.253 672.837 963.965 699.885 977.337 704.551V715.86C977.337 715.86 984.689 749.251 987.369 752.917C990.049 756.584 987.369 771.276 987.369 771.276C987.897 771.881 988.503 772.413 989.171 772.86L987.029 784.961C987.029 784.961 1002.41 784.292 1028.48 792.303C1028.47 792.35 1038.5 788.014 1030.14 782.671ZM968.627 608.053L965.371 608.863L964.73 609.023C964.664 608.618 964.617 608.383 964.617 608.383C963.87 608.719 963.066 608.914 962.248 608.957C961.094 605.307 960.428 601.52 960.266 597.695C959.171 593.117 958.504 588.448 958.275 583.747C958.275 581.315 958.681 579.195 959.596 577.998L960.681 578.083L961.436 578.799L961.493 578.846L961.88 579.195L962.286 579.553L962.352 579.609L962.786 579.996L962.861 580.062L963.305 580.439L963.805 580.853L963.918 580.948L964.447 581.372L964.966 581.786L965.088 581.881L965.664 582.314L965.787 582.399L966.334 582.804L966.428 582.87L967.051 583.313L967.202 583.417L967.863 583.869H967.919L968.561 584.293L968.712 584.397L969.401 584.84L969.552 584.934L970.194 585.33L970.316 585.405L971.052 585.839L971.232 585.943L971.996 586.367H972.053L972.798 586.763L972.978 586.857L973.77 587.253L973.931 587.328L974.667 587.667L974.808 587.733L975.639 588.091L975.837 588.176L976.696 588.525C971.364 594.387 968.627 608.053 968.627 608.053Z" fill="url(#paint0_linear_1_371)"/>
<path d="M886.168 766.536L879.968 783.811C879.968 783.811 896.955 796.817 907.996 794.122C909.659 793.708 911.354 793.434 913.063 793.302C915.347 793.132 919.282 791.464 916.838 789.353C909.005 782.511 898.559 769.797 898.559 769.797L886.168 766.536Z" fill="#4F4D59"/>
<path d="M989.303 764.905L986.368 781.53C986.368 781.53 1001.38 780.88 1026.84 788.702C1026.84 788.702 1036.64 784.461 1028.48 779.278C1028.48 779.278 1019.04 779.928 1013.14 769.853C1007.24 759.779 1003.7 761.051 1003.7 761.051L989.303 764.905Z" fill="#4F4D59"/>
<path d="M911.601 644.309L914.432 694.9C914.742 700.291 912.953 705.592 909.44 709.697C907.852 711.581 906.043 713.268 904.051 714.72C897.2 719.611 882.507 771.107 882.507 771.107C882.507 771.107 899.153 772.049 903.721 775.348C903.721 775.348 904.665 762.314 907.307 761.004C909.949 759.694 929.172 721.562 929.172 721.562L948.432 672.017C948.432 672.017 963.767 698.406 976.828 702.986V714.07C976.828 714.07 984.009 746.669 986.623 750.25C989.237 753.832 986.623 768.157 986.623 768.157C986.623 768.157 994.173 777.582 1011.42 767.507C1011.42 767.507 1005.87 761.315 1006.2 753.813C1006.53 746.311 998.655 705.248 998.655 705.248C998.655 705.248 999.599 689.603 991.804 679.802C984.009 670 971.052 632.557 971.052 632.557L962.069 613.255L911.601 644.309Z" fill="#C48C96"/>
<g opacity="0.1">
<path d="M885.678 771.097C885.678 771.097 900.361 719.602 907.222 714.71C909.326 713.17 911.229 711.371 912.884 709.357C916.233 705.309 917.92 700.142 917.602 694.9L914.724 644.3L962.852 614.669L962.201 613.265L911.789 644.309L914.668 694.909C914.985 700.151 913.298 705.318 909.949 709.367C908.294 711.381 906.392 713.179 904.287 714.72C897.445 719.602 882.743 771.097 882.743 771.097C882.743 771.097 899.389 772.04 903.957 775.338C903.957 775.338 903.957 774.83 904.08 774.01C897.653 771.804 885.678 771.097 885.678 771.097Z" fill="black"/>
<path d="M989.794 768.166C989.794 768.166 992.408 753.822 989.794 750.26C987.18 746.697 979.999 714.079 979.999 714.079V702.977C966.947 698.415 951.603 672.008 951.603 672.008L950.471 674.967C954.897 681.979 966.702 699.377 977.073 702.996V714.079C977.073 714.079 984.255 746.678 986.869 750.26C989.483 753.841 986.869 768.166 986.869 768.166C986.869 768.166 990.511 772.747 998.551 772.125C992.54 771.625 989.794 768.166 989.794 768.166Z" fill="black"/>
</g>
<path d="M1023.9 587.592L1017.49 588.016L1014.11 588.242V580.09L1018.55 579.289L1021.29 578.789C1021.29 578.789 1029.79 553.692 1037.94 558.253C1046.09 562.815 1023.9 587.592 1023.9 587.592Z" fill="#714B4F"/>
<path d="M921.094 520.404C921.094 520.404 916.847 536.699 915.545 546.793C914.243 556.887 945.894 548.753 945.894 548.753C945.894 548.753 933.815 534.089 940.675 526.266L921.094 520.404Z" fill="#714B4F"/>
<path d="M955.359 588.261L956.01 594.453L945.894 593.803L935.778 585L925.661 556.632L919.15 546.52L914.252 540.328L916.215 532.788C916.215 532.788 917.112 533.571 918.622 534.72C923.595 538.49 935.249 546.416 943.771 544.23C944.165 544.13 944.552 544.008 944.931 543.862L957.662 565.699L955.359 588.261Z" fill="#E6E6F0"/>
<path opacity="0.1" d="M918.81 530.875C918.81 530.875 913.592 531.818 909.996 539.678C907.241 545.691 897.917 551.93 893.756 554.446C892.962 554.93 892.273 555.568 891.73 556.322C891.187 557.077 890.801 557.932 890.594 558.838C889.754 562.551 889.434 569.478 894.001 579.44C901.182 595.085 906.401 601.927 906.401 601.927C906.401 601.927 907.703 617.572 905.75 622.133C903.796 626.695 905.75 651.792 905.75 651.792C905.75 651.792 940.015 658.314 951.443 651.792C962.871 645.27 961.238 620.173 961.238 620.173C961.238 620.173 972.006 642.99 975.922 643.64L973.638 630.926C973.638 630.926 960.908 617.232 960.257 599.637C960.257 599.637 956.34 583.662 959.606 579.43C959.606 579.43 1014.76 583.992 1018.03 580.081C1018.03 580.081 981.801 578.45 976.252 569.648C976.252 569.648 960.257 556.934 959.606 548.461C959.511 546.871 959.011 545.331 958.154 543.987C957.297 542.642 956.111 541.539 954.708 540.78C952.488 539.519 949.941 538.951 947.394 539.15L940.024 539.659C940.024 539.659 952.754 562.146 952.103 565.105C951.452 568.064 952.754 591.833 952.754 591.833C952.754 591.833 938.024 560.214 931.541 556.632C925.057 553.051 917.499 538.311 917.499 538.311L918.801 530.866" fill="black"/>
<path opacity="0.1" d="M955.359 588.261L956.01 594.453L945.894 593.803L935.778 585L925.661 556.632L919.15 546.52L914.252 540.328L916.215 532.788C916.215 532.788 917.112 533.571 918.622 534.72L918.169 537.293C918.169 537.293 925.718 552.014 932.201 555.605C938.684 559.196 953.415 590.806 953.415 590.806C953.415 590.806 952.113 567.009 952.764 564.078C953.207 562.089 947.489 551.1 943.771 544.23C944.165 544.13 944.552 544.008 944.931 543.862L957.662 565.699L955.359 588.261Z" fill="black"/>
<path opacity="0.1" d="M1017.49 588.016L1014.11 588.242V580.09L1018.55 579.289C1017 581.334 1017.06 584.953 1017.49 588.016Z" fill="black"/>
<path d="M918.81 529.904C918.81 529.904 913.592 530.847 909.996 538.707C907.241 544.72 897.917 550.959 893.756 553.475C892.962 553.959 892.273 554.597 891.73 555.352C891.187 556.106 890.801 556.961 890.594 557.867C889.754 561.58 889.434 568.507 894.001 578.469C901.182 594.114 906.401 600.956 906.401 600.956C906.401 600.956 907.703 616.601 905.75 621.162C903.796 625.724 905.75 650.821 905.75 650.821C905.75 650.821 940.015 657.343 951.443 650.821C962.871 644.299 961.238 619.202 961.238 619.202C961.238 619.202 971.996 641.981 975.922 642.678L973.638 629.965C973.638 629.965 960.908 616.271 960.257 598.675C960.257 598.675 956.34 582.701 959.606 578.469C959.606 578.469 972.336 592.163 986.699 591.833C997.165 591.77 1007.63 592.314 1018.03 593.463C1018.03 593.463 1014.76 583.03 1018.03 579.119C1018.03 579.119 981.801 577.489 976.252 568.686C976.252 568.686 960.257 555.973 959.606 547.5C959.511 545.909 959.011 544.369 958.154 543.025C957.297 541.681 956.111 540.578 954.708 539.819C952.488 538.558 949.941 537.99 947.394 538.188L940.024 538.697C940.024 538.697 952.754 561.184 952.103 564.144C951.452 567.103 952.754 590.872 952.754 590.872C952.754 590.872 938.024 559.233 931.541 555.652C925.057 552.071 917.499 537.369 917.499 537.369L918.801 529.923" fill="#C48C96"/>
<path opacity="0.1" d="M911.601 564.125C911.601 564.125 919.433 590.514 924.001 593.784C928.568 597.054 956.312 613.67 964.475 609.759C964.475 609.759 966.438 619.541 963.531 621.822C963.531 621.822 933.098 620.635 932.852 620.521C932.852 620.521 912.941 617.911 909.676 608.138C906.41 598.364 902.494 581.749 902.494 581.749L911.601 564.125Z" fill="black"/>
<path d="M953.406 593.954C954.036 593.954 954.547 593.224 954.547 592.323C954.547 591.423 954.036 590.693 953.406 590.693C952.775 590.693 952.264 591.423 952.264 592.323C952.264 593.224 952.775 593.954 953.406 593.954Z" fill="#BA7855"/>
<path d="M956.661 605.357C957.292 605.357 957.803 604.627 957.803 603.727C957.803 602.826 957.292 602.096 956.661 602.096C956.031 602.096 955.519 602.826 955.519 603.727C955.519 604.627 956.031 605.357 956.661 605.357Z" fill="#BA7855"/>
<g opacity="0.1">
<path d="M908.043 650.463C908.043 650.463 906.08 625.366 908.043 620.804C910.006 616.243 908.694 600.598 908.694 600.598C908.694 600.598 903.476 593.756 896.294 578.111C891.717 568.149 892.048 561.222 892.887 557.509C893.094 556.603 893.48 555.748 894.023 554.993C894.566 554.239 895.255 553.601 896.049 553.117C900.21 550.572 909.524 544.362 912.289 538.349C914.318 533.938 916.857 531.704 918.688 530.592L918.81 529.876C918.81 529.876 913.592 530.819 909.996 538.679C907.241 544.692 897.917 550.931 893.756 553.447C892.962 553.931 892.273 554.569 891.73 555.323C891.187 556.078 890.801 556.933 890.594 557.839C889.754 561.552 889.434 568.479 894.001 578.441C901.182 594.086 906.401 600.928 906.401 600.928C906.401 600.928 907.703 616.573 905.75 621.134C903.796 625.695 905.75 650.793 905.75 650.793C905.75 650.793 930.229 655.449 944.705 652.951C930.087 654.695 908.043 650.463 908.043 650.463Z" fill="black"/>
<path d="M952.094 564.125C951.65 566.132 952.094 577.941 952.462 585.179C954.038 588.393 955.029 590.533 955.029 590.533C955.029 590.533 953.726 566.736 954.378 563.805C955 560.977 943.535 540.564 942.393 538.547L940.015 538.707C940.015 538.707 952.754 561.194 952.094 564.125Z" fill="black"/>
<path d="M988.982 591.503C974.62 591.833 961.889 578.139 961.889 578.139C961.508 578.67 961.229 579.268 961.068 579.902C964.843 583.408 975.224 592.088 986.699 591.824C997.165 591.761 1007.63 592.305 1018.03 593.454C1018.03 593.454 1017.96 593.237 1017.86 592.87C1008.27 591.879 998.626 591.423 988.982 591.503Z" fill="black"/>
<path d="M963.503 618.881C963.503 618.881 963.635 620.917 963.56 623.971C966.957 630.7 973.138 642.207 975.903 642.669L975.422 639.992C970.675 634.036 963.503 618.881 963.503 618.881Z" fill="black"/>
</g>
<path d="M972.657 615.592L965.721 617.053L960.247 618.203L963.182 610.051L965.23 609.542L968.41 608.75C968.41 608.75 972.978 585.933 982.122 587.564C991.266 589.194 972.657 615.592 972.657 615.592Z" fill="#714B4F"/>
<path opacity="0.1" d="M965.73 617.081L960.257 618.231L963.192 610.079L965.239 609.57C965.693 612.046 965.858 614.567 965.73 617.081Z" fill="black"/>
<path d="M911.601 563.475C911.601 563.475 919.433 589.863 924.001 593.134C928.568 596.404 956.312 613.019 964.475 609.108C964.475 609.108 966.438 618.891 963.531 621.172C963.531 621.172 933.098 619.984 932.852 619.871C932.852 619.871 912.941 617.26 909.676 607.487C906.41 597.714 902.494 581.098 902.494 581.098L911.601 563.475Z" fill="#C48C96"/>
<path opacity="0.1" d="M921.415 521.102C921.415 521.102 920.754 523.656 919.867 527.369C921.674 530.788 924.558 533.518 928.073 535.136C931.589 536.754 935.54 537.171 939.316 536.322C938.533 532.977 938.703 529.593 940.996 526.973L921.415 521.102Z" fill="black"/>
<path d="M935.127 536.096C944.862 536.096 952.754 528.214 952.754 518.491C952.754 508.768 944.862 500.886 935.127 500.886C925.391 500.886 917.499 508.768 917.499 518.491C917.499 528.214 925.391 536.096 935.127 536.096Z" fill="#714B4F"/>
<path opacity="0.1" d="M950.433 513.647C951.71 514.003 953.047 514.087 954.359 513.892C955.717 513.525 956.918 512.725 957.78 511.615C958.641 510.504 959.117 509.143 959.134 507.738C959.109 506.333 958.77 504.951 958.141 503.694C957.513 502.436 956.61 501.336 955.501 500.471C954.01 499.227 952.226 498.351 950.858 496.966C949.244 495.316 948.357 493.111 947.083 491.169C944.985 487.959 941.872 485.541 938.241 484.299C935.542 483.357 932.229 483.281 930.153 485.241C929.087 486.25 928.464 487.692 927.275 488.549C925.548 489.775 923.208 489.416 921.103 489.662C919.197 489.951 917.391 490.704 915.844 491.854C914.297 493.005 913.057 494.517 912.233 496.259C910.623 499.81 910.315 503.814 911.365 507.568C911.77 509.17 912.374 510.716 912.809 512.28C913.752 515.598 913.941 519.076 914.998 522.346C916.055 525.616 918.235 528.821 921.538 529.801C921.277 526.13 922.004 522.456 923.642 519.16C923.912 518.44 924.444 517.847 925.133 517.502C925.721 517.351 926.338 517.351 926.926 517.502C931.065 518.113 935.288 517.26 938.864 515.089C940.119 514.335 942.072 511.734 943.403 511.479C945.12 511.187 948.64 513.251 950.433 513.647Z" fill="black"/>
<path d="M950.433 512.997C951.71 513.353 953.047 513.436 954.359 513.242C955.717 512.875 956.918 512.075 957.78 510.964C958.641 509.854 959.117 508.493 959.134 507.088C959.109 505.682 958.77 504.301 958.141 503.043C957.513 501.786 956.61 500.685 955.501 499.821C954.01 498.577 952.226 497.701 950.858 496.315C949.244 494.666 948.357 492.461 947.083 490.519C944.985 487.309 941.872 484.891 938.241 483.649C935.542 482.706 932.229 482.631 930.153 484.591C929.087 485.6 928.464 487.042 927.275 487.899C925.548 489.124 923.208 488.766 921.103 489.011C919.197 489.301 917.391 490.054 915.844 491.204C914.297 492.355 913.057 493.867 912.233 495.608C910.623 499.159 910.315 503.163 911.365 506.918C911.77 508.52 912.374 510.066 912.809 511.63C913.752 514.948 913.941 518.425 914.998 521.696C916.055 524.966 918.235 528.17 921.538 529.15C921.285 525.481 922.018 521.811 923.661 518.52C923.931 517.799 924.463 517.206 925.152 516.861C925.74 516.71 926.357 516.71 926.945 516.861C931.084 517.472 935.307 516.619 938.882 514.448C940.137 513.694 942.091 511.093 943.421 510.839C945.12 510.537 948.64 512.601 950.433 512.997Z" fill="#503F43"/>
<path d="M1126.29 454.894L1111.91 615.771L1047.26 633.678L982.801 615.771L968.438 454.894H1126.29Z" fill="#E44D26"/>
<path d="M1047.36 619.994L1099.59 605.536L1111.86 468.051H1047.36V619.994Z" fill="#F16529"/>
<path d="M1019.41 507.521H1047.36V487.786H997.815L998.287 493.083L1003.15 547.462H1047.37V527.727H1021.22L1019.41 507.521ZM1023.9 557.33H1004.08L1006.85 588.318L1047.27 599.571H1047.37V578.978H1047.28L1025.28 573.041L1023.9 557.33Z" fill="#EBEBEB"/>
<path d="M983.132 411.165H993.172V421.07H1002.35V411.165H1012.4V441.172H1002.35V431.126H993.172V441.172H983.132V411.165ZM1025.6 421.117H1016.75V411.165H1044.48V421.117H1035.64V441.172H1025.61V421.117H1025.6ZM1048.89 411.165H1059.36L1065.81 421.711L1072.24 411.165H1082.72V441.172H1072.72V426.3L1065.81 436.969H1065.64L1058.72 426.3V441.172H1048.89V411.165ZM1087.71 411.165H1097.75V431.248H1111.91V441.163H1087.74V411.165H1087.71Z" fill="black"/>
<path d="M1047.29 547.462H1071.62L1069.33 573.059L1047.29 578.997V599.571L1087.8 588.355L1088.1 585.019L1092.74 533.062L1093.22 527.765H1047.29V547.5V547.462ZM1047.29 507.474V507.521H1095.02L1095.42 503.082L1096.36 493.073L1096.84 487.777H1047.29V507.464V507.474Z" fill="white"/>
<path d="M547.076 573.663C545.236 568.281 542.584 561.411 540.47 559.846C540.343 559.745 540.203 559.659 540.055 559.592H539.791V552.947L534.827 553.739C534.03 551.338 533.427 548.876 533.024 546.378C533.503 546.856 534.112 547.182 534.775 547.315C535.439 547.447 536.126 547.38 536.752 547.123C536.667 546.991 536.601 546.85 536.525 546.708L536.752 546.614C535.971 545.237 535.558 543.682 535.553 542.1C535.595 540.656 535.826 539.223 536.242 537.84C537.129 534.777 538.63 531.912 539.47 528.839C540.006 526.855 540.261 524.806 540.225 522.751C540.25 519.27 539.455 515.831 537.903 512.714C537.518 511.817 536.915 511.029 536.148 510.424C535.45 510.038 534.732 509.688 533.996 509.378C532.766 508.55 531.706 507.494 530.873 506.268C527.348 501.981 522.628 498.836 517.312 497.229C515.928 496.716 514.428 496.599 512.981 496.89C509.649 497.833 508.432 501.913 505.733 504.072C503.346 505.957 500.071 506.173 497.089 506.814C494.028 507.334 491.21 508.809 489.039 511.027C487.628 512.638 486.859 514.711 486.878 516.851C486.797 517.85 486.974 518.853 487.392 519.764C487.81 520.675 488.455 521.463 489.266 522.054C490.188 522.66 491.234 523.054 492.327 523.209C493.42 523.364 494.534 523.275 495.589 522.949C494.765 525.792 494.538 528.774 494.922 531.708C495.306 534.642 496.294 537.466 497.822 540.001C499.351 542.536 501.387 544.729 503.804 546.441C506.221 548.153 508.966 549.348 511.867 549.95L512.452 550.987C514.237 554.311 515.591 557.849 516.482 561.514C511.914 564.106 506.922 566.528 503.912 566.754C503.792 567.93 503.575 569.093 503.261 570.232C502.557 573.092 501.204 575.753 499.307 578.007C495.211 582.606 476.781 617.383 476.781 617.383C476.781 617.383 476.196 618.768 475.252 621.153C463.805 622.557 445.13 624.583 439.911 623.537L419.434 604.104C419.434 604.104 412.828 609.146 413.394 615.272L409.704 611.766C409.704 611.766 390.246 626.591 420.972 636.27L467.722 641.689C463.268 655.109 459.115 670.726 460.399 679.227H460.786C461.68 679.225 462.573 679.156 463.456 679.02L463.371 680.528L458.87 761.041C458.87 761.041 457.841 775.866 471.666 782.52C471.666 782.52 488.568 832.121 481.905 837.748C481.905 837.748 482.698 838.162 484.029 838.747L470.128 850.999C470.128 850.999 459.889 853.553 454.255 853.044C453.265 852.909 452.26 853.143 451.432 853.701C450.603 854.259 450.009 855.102 449.764 856.069C449.764 856.173 449.764 856.276 449.707 856.39V856.521C449.707 856.625 449.707 856.738 449.707 856.851C449.707 856.964 449.707 856.936 449.707 856.974C449.707 857.012 449.707 857.162 449.707 857.257V857.379C449.707 857.492 449.707 857.596 449.773 857.709V857.832C449.804 857.951 449.842 858.067 449.886 858.18V858.293C449.933 858.406 449.99 858.519 450.047 858.633V858.708C450.113 858.821 450.179 858.934 450.254 859.047L450.32 859.141C450.402 859.261 450.493 859.38 450.594 859.5L450.669 859.594C450.773 859.716 450.886 859.83 451.009 859.952H451.066L451.443 860.272L451.528 860.338L451.991 860.668L452.104 860.744L452.642 861.055H452.727L453.302 861.337H453.387L454.057 861.611L454.199 861.667L454.944 861.912H455.067L455.869 862.12H455.935L456.879 862.299H457.058L458.002 862.44H458.181L459.266 862.544C461.371 862.704 464.211 862.761 467.495 862.751C467.495 862.751 467.495 862.836 467.495 862.874C467.495 862.911 467.495 863.062 467.495 863.156V863.279C467.495 863.392 467.495 863.496 467.561 863.609V863.731C467.593 863.851 467.63 863.967 467.675 864.08V864.193C467.722 864.306 467.778 864.419 467.835 864.532V864.608C467.901 864.721 467.967 864.834 468.043 864.947L468.109 865.041C468.19 865.161 468.282 865.28 468.382 865.399L468.458 865.494C468.562 865.616 468.675 865.729 468.798 865.852H468.845L469.222 866.172L469.307 866.238L469.77 866.568L469.883 866.643L470.411 866.954H470.496L471.072 867.237H471.157L471.827 867.51L471.968 867.567L472.714 867.812H472.836L473.639 868.019H473.705L474.648 868.199H474.828L475.771 868.34H475.951L477.036 868.443C490.351 869.471 532.845 866.398 532.845 866.398V866.276V866.125C533.27 864.146 535.308 852.639 528.061 844.128C528.278 843.902 528.485 843.666 528.683 843.421C528.683 843.421 523.021 833.705 526.126 830.642C529.231 827.579 511.131 774.867 511.131 774.867C511.131 774.867 501.402 759.524 507.035 742.136C512.669 724.747 506.526 705.832 506.526 705.832C506.526 705.832 519.973 701.855 520.219 685.334C520.219 684.835 520.219 684.316 520.219 683.798C520.5 683.839 520.784 683.858 521.068 683.854C521.256 683.868 521.446 683.868 521.634 683.854C521.634 683.854 519.077 674.647 522.144 668.002C525.211 661.358 531.873 667.493 538.016 640.388C542.461 620.776 546.368 598.223 548.199 587.243C548.951 582.693 548.565 578.028 547.076 573.663ZM430.229 631.152L425.558 626.723C427.106 627.364 428.823 627.986 430.739 628.608L448.339 630.672C440.487 631.378 433.155 631.774 430.229 631.181V631.152Z" fill="url(#paint1_linear_1_371)"/>
<path d="M474.799 628.57C474.799 628.57 438.581 633.593 431.031 632.085L410.912 612.991C410.912 612.991 391.793 627.562 421.982 637.109L478.319 643.64L474.799 628.57Z" fill="#FDC2CC"/>
<path opacity="0.05" d="M474.799 628.57C474.799 628.57 438.581 633.593 431.031 632.085L410.912 612.991C410.912 612.991 391.793 627.562 421.982 637.109L478.319 643.64L474.799 628.57Z" fill="black"/>
<path d="M403.901 641.246L325.632 619.57L308.193 424.199H499.845L482.387 619.541L403.901 641.246Z" fill="#264DE4"/>
<path d="M467.439 607.11L482.358 440.183H404.033V624.631L467.439 607.11Z" fill="#2965F1"/>
<path d="M348.224 512.61L350.375 536.567H404.071V512.61H348.224ZM343.901 464.112L346.081 488.069H404.061V464.112H343.854H343.901ZM404.061 574.841H403.957L377.232 567.631L375.524 548.518H351.394L354.754 586.141L403.901 599.797H404.014L404.061 574.841Z" fill="#EBEBEB"/>
<path d="M353.301 371.082H382.356V383.221H365.446V395.36H382.356V407.498H353.301V371.082ZM388.217 371.082H417.273V381.637H400.324V383.749H417.235V408.026H388.17V396.943H405.08V394.832H388.17V371.082H388.217ZM423.133 371.082H452.189V381.637H435.193V383.749H452.104V408.026H423.038V396.943H439.949V394.832H423.038V371.082H423.133Z" fill="black"/>
<path d="M459.71 512.61L464.041 464.112H403.901V488.069H437.713L435.533 512.573H403.901V536.53H433.447L430.616 567.631L403.901 574.859V599.787L453.085 586.169L453.444 582.116L459.106 519.028L459.691 512.591L459.71 512.61Z" fill="white"/>
<path d="M487.888 832.536L470.279 848.105C470.279 848.105 460.22 850.622 454.69 850.113C449.16 849.604 446.64 858.651 459.719 859.66C472.799 860.668 514.547 857.652 514.547 857.652C514.547 857.652 518.567 841.574 506.498 832.536H487.888Z" fill="#47465A"/>
<path opacity="0.05" d="M487.888 832.536L470.279 848.105C470.279 848.105 460.22 850.622 454.69 850.113C449.16 849.604 446.64 858.651 459.719 859.66C472.799 860.668 514.547 857.652 514.547 857.652C514.547 857.652 518.567 841.574 506.498 832.536H487.888Z" fill="black"/>
<path opacity="0.3" d="M515.17 850.707C515.14 852.539 514.928 854.364 514.538 856.154C514.538 856.154 472.789 859.17 459.71 858.161C453.416 857.681 450.745 855.334 450.273 853.091C449.697 855.673 451.981 859.076 459.71 859.688C472.789 860.697 514.538 857.681 514.538 857.681C515.03 855.39 515.242 853.048 515.17 850.707Z" fill="white"/>
<path d="M508.498 547.736C508.498 547.736 519.568 563.305 515.538 573.861C511.509 584.416 536.667 562.806 536.667 562.806C536.667 562.806 528.617 548.678 532.647 533.599L508.498 547.736Z" fill="#FDC2CC"/>
<path d="M505.478 838.568L487.888 854.137C487.888 854.137 477.829 856.653 472.299 856.144C466.769 855.636 464.249 864.683 477.328 865.692C490.408 866.7 532.156 863.684 532.156 863.684C532.156 863.684 536.176 847.606 524.107 838.568H505.478Z" fill="#47465A"/>
<path d="M510.537 835.052C507.913 838.285 504.214 839.529 500.345 839.718C491.55 840.132 481.868 835.052 481.868 835.052C488.407 829.53 471.808 780.795 471.808 780.795C458.228 774.264 459.229 759.694 459.229 759.694L463.626 680.622L464.74 660.755L478.829 652.216L489.927 660.698L500.458 668.766C501.144 671.332 501.586 673.958 501.779 676.607C503.006 695.07 488.388 699.414 488.388 699.414C488.388 699.414 494.428 718 488.889 735.086C483.349 752.173 492.909 767.243 492.909 767.243C492.909 767.243 511.018 819.492 508.007 822.508C504.997 825.524 510.537 835.052 510.537 835.052Z" fill="#565171"/>
<path opacity="0.05" d="M510.537 835.052C507.913 838.285 504.214 839.529 500.345 839.718C491.55 840.132 481.868 835.052 481.868 835.052C488.407 829.53 471.808 780.795 471.808 780.795C458.228 774.264 459.229 759.694 459.229 759.694L463.626 680.622L464.74 660.755L478.829 652.216L489.927 660.698L500.458 668.766C501.144 671.332 501.586 673.958 501.779 676.607C503.006 695.07 488.388 699.414 488.388 699.414C488.388 699.414 494.428 718 488.889 735.086C483.349 752.173 492.909 767.243 492.909 767.243C492.909 767.243 511.018 819.492 508.007 822.508C504.997 825.524 510.537 835.052 510.537 835.052Z" fill="black"/>
<path d="M528.117 841.075C519.568 851.621 499.448 841.075 499.448 841.075C499.853 840.702 500.156 840.231 500.326 839.708C504.016 829.69 487.879 781.794 487.879 781.794C474.299 775.263 472.78 759.694 472.78 759.694L469.222 679.189L468.76 668.766L489.927 660.698L496.429 658.22L518.086 674.797C519.016 678.232 519.473 681.777 519.445 685.334C519.171 701.554 505.988 705.474 505.988 705.474C505.988 705.474 512.028 724.059 506.488 741.146C500.949 758.233 510.537 773.256 510.537 773.256C510.537 773.256 528.646 825.505 525.635 828.521C522.625 831.537 528.117 841.075 528.117 841.075Z" fill="#565171"/>
<path opacity="0.1" d="M519.445 685.334C515.095 684.712 506.29 679.481 501.77 676.645C500.043 675.561 498.939 674.835 498.939 674.835C498.939 674.835 494.409 662.272 482.339 671.819C478.413 675.004 473.979 677.508 469.222 679.227C467.405 679.87 465.532 680.34 463.626 680.631L464.74 660.764L478.829 652.226L489.927 660.708L496.428 658.229L518.086 674.797C519.016 678.232 519.473 681.776 519.445 685.334Z" fill="black"/>
<path d="M546.67 588.93C544.877 599.712 541.008 621.916 536.667 641.133C530.628 667.757 524.088 661.726 521.077 668.257C518.067 674.788 520.577 683.826 520.577 683.826C515.548 684.326 498.948 673.28 498.948 673.28C498.948 673.28 494.418 660.717 482.349 670.264C470.279 679.811 460.72 679.302 460.72 679.302C458.2 662.725 476.819 618.514 476.819 618.514C476.819 618.514 494.928 584.35 498.948 579.873C500.814 577.66 502.144 575.048 502.836 572.239C503.145 571.122 503.36 569.981 503.478 568.828C510.018 568.328 526.126 557.273 526.126 557.273L538.705 555.266V561.797C538.854 561.864 538.994 561.949 539.121 562.052C541.187 563.625 543.839 570.336 545.604 575.623C547.049 579.904 547.415 584.474 546.67 588.93Z" fill="#E1A0A7"/>
<path d="M487.888 636.11L481.386 635.356L431.55 629.578C401.353 620.031 420.481 605.461 420.481 605.461L440.6 624.555C446.404 625.714 469.175 623.009 479.376 621.728C482.434 621.332 484.368 621.068 484.368 621.068L487.888 636.11Z" fill="#FDC2CC"/>
<path opacity="0.1" d="M536.667 568.291C536.667 568.291 523.588 557.745 503.931 591.899C484.274 626.054 479.782 620.531 479.782 620.531C479.782 620.531 483.802 635.61 481.792 638.617C481.792 638.617 495.372 637.608 500.401 638.617C505.431 639.625 536.62 600.438 536.62 600.438C536.62 600.438 552.766 578.337 536.667 568.291Z" fill="black"/>
<path opacity="0.1" d="M536.167 567.226C536.167 567.226 523.087 556.68 503.468 590.834C483.849 624.989 479.32 619.466 479.32 619.466C479.32 619.466 494.909 636.543 499.939 637.552C504.969 638.56 536.157 599.373 536.157 599.373C536.157 599.373 552.266 577.272 536.167 567.226Z" fill="black"/>
<path opacity="0.1" d="M481.377 635.384C481.584 631.661 480.178 625.121 479.367 621.728C482.424 621.332 484.359 621.068 484.359 621.068L487.879 636.147L481.377 635.384Z" fill="black"/>
<path d="M536.667 567.282C536.667 567.282 523.588 556.736 503.931 590.9C484.274 625.064 479.782 619.532 479.782 619.532C479.782 619.532 483.802 634.611 481.792 637.618C481.792 637.618 495.372 636.609 500.401 637.618C505.431 638.626 536.62 599.439 536.62 599.439C536.62 599.439 552.766 577.329 536.667 567.282Z" fill="#E1A0A7"/>
<path opacity="0.1" d="M533.185 536.511L508.998 550.563C510.022 552.046 510.967 553.581 511.829 555.162C513.221 555.444 514.637 555.586 516.057 555.586C522.502 555.586 525.494 548.829 529.391 544.277C529.108 540.658 532.071 540.564 533.185 536.511Z" fill="black"/>
<path d="M515.538 552.721C527.207 552.721 536.667 543.274 536.667 531.62C536.667 519.966 527.207 510.518 515.538 510.518C503.869 510.518 494.409 519.966 494.409 531.62C494.409 543.274 503.869 552.721 515.538 552.721Z" fill="#FDC2CC"/>
<path opacity="0.1" d="M488.832 514.552C490.963 512.37 493.731 510.918 496.74 510.405C499.675 509.774 502.893 509.585 505.233 507.71C507.885 505.589 509.074 501.555 512.348 500.651C513.771 500.366 515.245 500.484 516.604 500.99C521.828 502.567 526.465 505.657 529.929 509.868C530.749 511.076 531.793 512.116 533.006 512.931C533.728 513.236 534.433 513.579 535.119 513.958C535.871 514.554 536.461 515.329 536.837 516.211C539.194 520.967 539.738 526.417 538.366 531.544C537.545 534.57 536.073 537.378 535.195 540.394C534.317 543.41 534.1 546.822 535.695 549.517C534.147 550.309 532.194 549.31 531.222 547.868C530.25 546.426 529.957 544.654 529.448 542.986C528.446 539.711 526.558 536.776 523.993 534.504C522.408 533.109 519.577 532.166 518.473 533.966C518.048 534.664 518.077 535.559 517.709 536.285C516.991 537.708 514.877 537.991 513.528 537.227C512.199 536.311 511.266 534.928 510.914 533.354C508.847 526.351 505.309 521.95 497.816 524.938C494.985 526.05 491.729 526.823 489.04 524.938C485.595 522.412 486.284 517.408 488.832 514.552Z" fill="black"/>
<path d="M488.832 514.043C490.963 511.861 493.731 510.409 496.74 509.896C499.675 509.265 502.893 509.076 505.233 507.201C507.885 505.08 509.074 501.046 512.348 500.142C513.771 499.857 515.245 499.975 516.604 500.481C521.828 502.058 526.465 505.148 529.929 509.359C530.749 510.567 531.793 511.607 533.006 512.422C533.728 512.727 534.433 513.07 535.119 513.449C535.871 514.045 536.461 514.82 536.837 515.702C539.194 520.458 539.738 525.908 538.366 531.035C537.545 534.061 536.073 536.869 535.195 539.885C534.317 542.901 534.1 546.312 535.695 549.008C534.147 549.8 532.194 548.801 531.222 547.359C530.25 545.917 529.957 544.145 529.448 542.477C528.446 539.202 526.558 536.267 523.993 533.995C522.408 532.6 519.577 531.657 518.473 533.457C518.048 534.155 518.077 535.05 517.709 535.776C516.991 537.199 514.877 537.482 513.528 536.718C512.199 535.802 511.266 534.419 510.914 532.845C508.847 525.842 505.309 521.441 497.816 524.429C494.985 525.541 491.729 526.314 489.04 524.429C485.595 521.912 486.284 516.908 488.832 514.043Z" fill="#8F5A6A"/>
<path opacity="0.05" d="M539.092 562.014H528.872C528.872 562.014 508.753 572.06 508.253 571.561C507.913 571.222 504.799 571.806 502.827 572.211C503.135 571.094 503.35 569.953 503.468 568.799C510.008 568.3 526.117 557.245 526.117 557.245L538.696 555.238V561.769C538.838 561.834 538.971 561.916 539.092 562.014Z" fill="black"/>
<path opacity="0.3" d="M532.77 856.729C532.74 858.561 532.528 860.386 532.137 862.176C532.137 862.176 490.389 865.192 477.31 864.184C471.015 863.703 468.345 861.356 467.873 859.113C467.297 861.696 469.581 865.098 477.31 865.71C490.389 866.719 532.137 863.703 532.137 863.703C532.629 861.412 532.841 859.071 532.77 856.729Z" fill="white"/>
<g opacity="0.05">
<path d="M477.564 669.765C470.779 675.137 464.777 677.304 460.833 678.247C460.833 678.624 460.908 678.991 460.965 679.349C460.965 679.349 470.525 679.849 482.594 670.311C484.464 668.711 486.675 667.557 489.058 666.937C486.425 665.646 482.67 665.731 477.564 669.765Z" fill="black"/>
<path d="M545.83 575.576C544.028 570.289 541.414 563.588 539.347 562.004C539.22 561.902 539.081 561.816 538.932 561.75C538.932 561.75 534.77 561.891 534.912 562.004C536.978 563.578 538.998 569.789 540.8 575.067C542.261 579.357 542.637 583.941 541.895 588.412C540.102 599.194 536.233 621.398 531.892 640.614C525.852 667.239 519.313 661.207 516.302 667.738C513.83 673.091 515.066 680.122 515.604 682.488C517.231 683.301 519.014 683.754 520.832 683.817C520.832 683.817 518.312 674.778 521.332 668.247C524.352 661.716 530.892 667.748 536.922 641.123C541.291 621.86 545.132 599.655 546.925 588.921C547.667 584.45 547.291 579.866 545.83 575.576Z" fill="black"/>
</g>
<path d="M604.291 669.416C606.021 668.008 607.281 666.108 607.905 663.969C608.377 661.801 607.452 659.209 605.376 658.418C603.055 657.532 600.573 659.134 598.695 660.764C596.817 662.395 594.656 664.242 592.193 663.893C593.459 662.747 594.406 661.293 594.942 659.673C595.478 658.053 595.584 656.321 595.251 654.648C595.144 653.954 594.851 653.302 594.401 652.763C593.109 651.387 590.778 651.981 589.23 653.064C584.323 656.514 582.955 663.168 582.926 669.162C582.436 667.003 582.851 664.751 582.832 662.564C582.813 660.378 582.209 657.852 580.341 656.702C579.182 656.081 577.881 655.772 576.566 655.807C574.358 655.722 571.904 655.948 570.394 657.56C568.507 659.558 569.007 662.923 570.64 665.1C572.272 667.277 574.745 668.681 577.028 670.208C578.859 671.294 580.42 672.779 581.596 674.552C581.734 674.798 581.848 675.057 581.935 675.325H595.76C598.858 673.749 601.727 671.761 604.291 669.416Z" fill="#8D86D4"/>
<path d="M629.686 846.381C631.884 844.336 633.951 841.923 634.593 838.992C635.234 836.061 633.979 832.536 631.167 831.452C628.025 830.246 624.656 832.395 622.108 834.628C619.56 836.862 616.634 839.341 613.303 838.869C615.019 837.315 616.302 835.344 617.028 833.147C617.754 830.95 617.898 828.603 617.446 826.335C617.3 825.398 616.902 824.519 616.295 823.79C614.549 821.905 611.378 822.725 609.293 824.195C602.687 828.908 600.8 837.889 600.752 846.013C600.082 843.082 600.649 840.029 600.63 837.022C600.611 834.016 599.79 830.689 597.251 829.068C595.67 828.219 593.893 827.803 592.099 827.861C589.107 827.748 585.776 828.05 583.738 830.236C581.199 832.951 581.85 837.503 584.068 840.49C586.286 843.478 589.636 845.353 592.722 847.417C595.199 848.892 597.312 850.905 598.903 853.308C599.091 853.643 599.246 853.997 599.365 854.363H618.116C622.315 852.235 626.207 849.55 629.686 846.381Z" fill="#8D86D4"/>
</g>
<defs>
<linearGradient id="paint0_linear_1_371" x1="959.851" y1="798.287" x2="959.851" y2="479.219" gradientUnits="userSpaceOnUse">
<stop stop-color="#808080" stop-opacity="0.25"/>
<stop offset="0.54" stop-color="#808080" stop-opacity="0.12"/>
<stop offset="1" stop-color="#808080" stop-opacity="0.1"/>
</linearGradient>
<linearGradient id="paint1_linear_1_371" x1="476.12" y1="869.169" x2="476.12" y2="496.702" gradientUnits="userSpaceOnUse">
<stop stop-color="#808080" stop-opacity="0.25"/>
<stop offset="0.54" stop-color="#808080" stop-opacity="0.12"/>
<stop offset="1" stop-color="#808080" stop-opacity="0.1"/>
</linearGradient>
<clipPath id="clip0_1_371">
<rect width="749" height="506.085" fill="white"/>
</clipPath>
<clipPath id="clip1_1_371">
<rect width="972" height="687.86" fill="white" transform="translate(201 217)"/>
</clipPath>
</defs>
</svg>
